<svg viewBox="0 0 394 371" fill="none" xmlns="http://www.w3.org/2000/svg">
<path
  d="M374.7 67.8c30.4 45.8 19.5 116.8-2.2 174.8-21.6 58-54 103-95.9
  119.9-41.9 17-93.2
  5.9-138.8-16.4-45.5-22.3-85.2-55.7-111.3-109.5-26-53.8-38.3-128-7-174C50.9
  16.6 125.9-1.2 199.3.2c73.4 1.3 145 21.8 175.4 67.6z"
  fill="#D8E3EC" />
<path
  d="M322.712 129.515c7.187 8.798 8.325 20.625 1.699 28.676-6.627
  8.037-21.019 12.312-35.654
  12.409-14.634.11-29.493-3.957-32.349-10.389-2.856-6.433 6.291-15.231
  13.739-24.139 7.429-8.895 13.141-17.887 22.624-19.506 9.482-1.604 22.736
  4.151 29.941 12.949zM162.79 271.697c-6.109 8.848-2.317 25.175 5.715 32.785
  8.005 7.61 20.25 6.531 31.126 5.741 10.875-.79 20.382-1.291 22.962-5.767
  2.581-4.477-1.764-12.93-6.504-20.988-4.74-8.058-9.928-15.695-20.514-18.828-10.612-3.134-26.649-1.791-32.785
  7.057zM147.41 66.285c1.763 6.952-5.032 16.471-10.2 26.048-5.155
  9.578-8.683 19.243-13.024
  19.8-4.354.558-9.509-7.964-14.677-17.556-5.155-9.577-10.323-20.21-7.745-27.72
  2.59-7.524 12.913-11.924 23.236-11.924s20.646 4.4 22.41 11.352z"
  fill="#ABB8C3" />
</svg>
